#!OML:ASF H:\Terrain\Patient Classification 1\Animal2\Wednesday\Animal2.ASF
:FULLY-SPECIFIED
:DEGREES
3505
root 12.6791 14.5196 -19.4641 23.8733 -8.25315 -0.238168
lowerback 30.6578 -0.114797 7.60338
upperback 11.6949 1.88861 1.40092
thorax -3.29804 1.02778 -3.41016
lowerneck -4.7462 -0.392048 12.5075
upperneck -17.4934 -1.82033 -8.35333
head -4.62648 -1.31402 -4.66855
rclavicle -2.38542e-014 7.95139e-016
rhumerus 46.1441 5.91376 -18.7731
rradius 78.3694
rwrist -36.7876
rhand -22.2514 13.5344
rfingers 7.12502
rthumb 4.16599 -16.4046
lclavicle -2.38542e-014 7.95139e-016
lhumerus -350.117 -47.4 416.264
lradius 105.975
lwrist -1.89455
lhand 10.093 31.5903
lfingers 7.12502
lthumb 35.2145 58.096
rfemur -68.4888 -5.13053 -8.10477
rtibia 60.9649
rfoot -8.55635 -15.13
rtoes -24.9042
lfemur -54.1615 11.2126 3.34803
ltibia 69.96
lfoot -32.9483 1.0772
ltoes -39.632
3506
root 12.7338 14.5329 -19.4561 23.571 -8.2602 -0.501911
lowerback 30.3415 -0.221999 7.45985
upperback 11.4822 1.70951 1.44081
thorax -3.42808 0.927931 -3.22511
lowerneck -4.43602 -0.368647 11.8371
upperneck -17.3813 -1.68804 -7.96734
head -4.62242 -1.21529 -4.4315
rclavicle -1.82882e-014 2.3059e-014
rhumerus 46.8278 6.73794 -17.71
rradius 81.0607
rwrist -35.7316
rhand -21.0224 15.4858
rfingers 7.12502
rthumb 5.35277 -14.4266
lclavicle -1.82882e-014 2.3059e-014
lhumerus -352.109 -46.6473 416.105
lradius 106.209
lwrist -3.11874
lhand 12.3836 33.0994
lfingers 7.12502
lthumb 37.3835 59.0637
rfemur -67.8742 -4.80359 -8.11052
rtibia 60.5508
rfoot -8.64774 -15.0287
rtoes -23.4282
lfemur -53.8506 11.2708 3.40024
ltibia 70.0854
lfoot -33.1323 0.591763
ltoes -38.6219
3507
root 12.7787 14.5466 -19.4532 23.2002 -8.38874 -0.844681
lowerback 30.0741 -0.0383761 7.3428
upperback 11.3801 1.88754 1.4216
thorax -3.41103 1.00968 -3.2311
lowerneck -4.41353 -0.429025 11.8801
upperneck -17.2794 -1.73793 -7.77927
head -4.60223 -1.24954 -4.3751
rclavicle 9.54166e-015 2.38542e-014
rhumerus 46.5985 7.1263 -16.7125
rradius 83.8736
rwrist -34.9591
rhand -20.0858 17.6279
rfingers 7.12502
rthumb 6.25695 -12.2597
lclavicle 9.54166e-015 2.38542e-014
lhumerus -353.039 -46.3406 415.052
lradius 106.513
lwrist -4.20274
lhand 15.288 34.5982
lfingers 7.12502
lthumb 40.1227 59.7871
rfemur -67.333 -4.25517 -8.07006
rtibia 60.1236
rfoot -8.71464 -15.0436
rtoes -21.6115
lfemur -53.36 11.3819 3.58006
ltibia 70.1566
lfoot -33.401 0.371438
ltoes -38.0406
3508
root 12.8293 14.5605 -19.447 22.7676 -8.25885 -1.24304
lowerback 29.7879 0.0129134 7.3192
upperback 11.3588 1.93206 1.5461
thorax -3.30766 1.03098 -3.08694
lowerneck -4.44157 -0.436886 11.9072
upperneck -17.2952 -1.7468 -7.73446
head -4.60416 -1.2587 -4.36532
rclavicle -3.97569e-015 1.35174e-014
rhumerus 46.5587 7.38223 -15.5509
rradius 86.7907
rwrist -34.3716
rhand -19.4029 18.7936
rfingers 7.12502
rthumb 6.91625 -11.0734
lclavicle -3.97569e-015 1.35174e-014
lhumerus -353.756 -45.8829 413.957
lradius 106.694
lwrist -4.76584
lhand 17.1461 36.1602
lfingers 7.12502
lthumb 41.8678 60.7944
rfemur -66.5489 -3.74375 -7.96909
rtibia 59.6698
rfoot -8.85486 -15.2418
rtoes -19.7053
lfemur -52.9279 11.342 3.87287
ltibia 70.2163
lfoot -33.382 0.225928
ltoes -37.7998
3509
root 12.8896 14.5688 -19.4367 22.4216 -8.05863 -1.50122
lowerback 29.3244 -0.0295757 7.2927
upperback 11.3182 1.84245 1.58719
thorax -3.15501 0.992542 -2.9893
lowerneck -4.69735 -0.402169 12.2395
upperneck -17.0133 -1.74394 -7.89463
head -4.479 -1.27031 -4.46959
rclavicle -1.82882e-014 3.97569e-015
rhumerus 46.6309 7.67262 -14.5529
rradius 89.5019
rwrist -34.0629
rhand -18.4988 19.9555
rfingers 7.12502
rthumb 7.78887 -9.88103
lclavicle -1.82882e-014 3.97569e-015
lhumerus -354.519 -45.5317 412.887
lradius 106.8
lwrist -5.06243
lhand 17.9656 37.3025
lfingers 7.12502
lthumb 42.6354 61.676
rfemur -65.7175 -3.55832 -7.90919
rtibia 59.1872
rfoot -8.62966 -15.3741
rtoes -20.5679
lfemur -52.6827 11.2389 3.97294
ltibia 70.3146
lfoot -33.3956 -0.454832
ltoes -36.3355
